<svg xmlns="http://www.w3.org/2000/svg" xmlns:xlink="http://www.w3.org/1999/xlink" width="3000" zoomAndPan="magnify" viewBox="0 0 2250 1499.999933" height="2000" preserveAspectRatio="xMidYMid meet" version="1.0"><defs><g/></defs><g fill="#000000" fill-opacity="1"><g transform="translate(135.433836, 1062.1705)"><g><path d="M 474.5625 -153.34375 L 449.6875 0 L 36.265625 0 L 36.265625 -731.53125 L 119.15625 -731.53125 L 119.15625 -8.296875 L 294.265625 -8.296875 C 339.171875 -8.296875 375.609375 -19.347656 403.578125 -41.453125 C 431.554688 -63.554688 455.21875 -100.851562 474.5625 -153.34375 Z M 474.5625 -153.34375 "/></g></g></g><g fill="#000000" fill-opacity="1"><g transform="translate(682.522076, 1062.1705)"><g><path d="M 36.265625 0 L 36.265625 -731.53125 L 113.984375 -731.53125 L 113.984375 0 Z M 36.265625 0 "/></g></g></g><g fill="#000000" fill-opacity="1"><g transform="translate(869.029786, 1062.1705)"><g><path d="M 664.171875 -731.53125 L 664.171875 0 L 585.421875 0 L 585.421875 -706.65625 C 550.890625 -692.15625 521.359375 -669.1875 496.828125 -637.75 C 472.304688 -606.320312 451.753906 -569.363281 435.171875 -526.875 C 418.597656 -484.394531 405.476562 -439.148438 395.8125 -391.140625 C 386.144531 -343.140625 378.890625 -295.132812 374.046875 -247.125 C 369.210938 -199.113281 365.929688 -153.863281 364.203125 -111.375 C 362.484375 -68.894531 361.625 -31.769531 361.625 0 L 351.25 0 L 71.5 -644.484375 L 42.484375 -712.875 L 42.484375 0 L 36.265625 0 L 36.265625 -731.53125 L 122.265625 -731.53125 L 358.515625 -185.46875 C 362.660156 -233.132812 368.875 -282.351562 377.15625 -333.125 C 385.445312 -383.894531 396.84375 -432.9375 411.34375 -480.25 C 425.851562 -527.570312 444.503906 -570.226562 467.296875 -608.21875 C 490.097656 -646.21875 517.554688 -676.269531 549.671875 -698.375 C 581.796875 -720.476562 619.960938 -731.53125 664.171875 -731.53125 Z M 664.171875 -731.53125 "/></g></g></g><g fill="#000000" fill-opacity="1"><g transform="translate(1605.734004, 1062.1705)"><g><path d="M 116.046875 -488.03125 L 116.046875 -8.296875 L 291.15625 -8.296875 C 336.0625 -8.296875 372.847656 -19.347656 401.515625 -41.453125 C 430.179688 -63.554688 453.835938 -100.851562 472.484375 -153.34375 L 448.65625 0 L 36.265625 0 L 36.265625 -731.53125 L 454.875 -731.53125 L 454.875 -648.640625 C 430.695312 -672.117188 407.207031 -689.210938 384.40625 -699.921875 C 361.613281 -710.628906 335.882812 -717.363281 307.21875 -720.125 C 278.550781 -722.882812 243.148438 -724.265625 201.015625 -724.265625 L 116.046875 -724.265625 L 116.046875 -556.421875 C 116.046875 -509.441406 123.988281 -473.519531 139.875 -448.65625 C 155.769531 -423.789062 179.601562 -407.039062 211.375 -398.40625 C 243.144531 -389.769531 282.863281 -385.453125 330.53125 -385.453125 L 330.53125 -303.59375 C 315.332031 -320.863281 297.195312 -334.503906 276.125 -344.515625 C 255.0625 -354.535156 233.648438 -364.898438 211.890625 -375.609375 C 190.128906 -386.316406 170.613281 -400.128906 153.34375 -417.046875 C 136.082031 -433.972656 123.648438 -457.632812 116.046875 -488.03125 Z M 258 -987.453125 L 404.09375 -861.046875 L 401 -854.828125 L 258 -936.6875 L 109.828125 -854.828125 L 104.65625 -861.046875 Z M 258 -987.453125 "/></g></g></g><path stroke-linecap="butt" transform="matrix(3.942382, 0, 0, 3.942382, 912.189763, 1141.081994)" fill="none" stroke-linejoin="miter" d="M 16.693015 30.485032 C 16.693015 28.792685 16.090587 27.347057 14.885732 26.147156 C 13.68583 24.9423 12.240202 24.339873 10.547856 24.339873 C 8.861455 24.339873 7.418799 24.9423 6.219888 26.147156 C 5.015033 27.347057 4.412605 28.792685 4.412605 30.485032 C 4.412605 32.145671 5.015033 33.576437 6.219888 34.775347 C 7.418799 35.980203 8.861455 36.583621 10.547856 36.583621 C 12.240202 36.583621 13.68583 35.980203 14.885732 34.775347 C 16.090587 33.576437 16.693015 32.145671 16.693015 30.485032 Z M 19.372233 30.485032 C 19.372233 32.93933 18.517142 35.009184 16.80597 36.695586 C 15.03832 38.412703 12.952613 39.271757 10.547856 39.271757 C 8.14409 39.271757 6.073245 38.412703 4.337302 36.695586 C 2.594423 35.009184 1.723479 32.93933 1.723479 30.485032 C 1.723479 28.055504 2.594423 25.969796 4.337302 24.226917 C 6.048474 22.515745 8.118328 21.660655 10.547856 21.660655 C 12.983328 21.660655 15.069036 22.515745 16.80597 24.226917 C 18.517142 25.969796 19.372233 28.055504 19.372233 30.485032 Z M 38.706397 36.123874 C 37.456954 38.272004 35.57734 39.34706 33.066564 39.34706 C 31.174069 39.34706 29.690789 38.718871 28.616724 37.463483 C 27.56743 36.208095 27.043278 34.609878 27.043278 32.667841 L 27.043278 22.119411 L 29.731413 22.119411 L 29.731413 32.667841 C 29.731413 33.766677 29.98804 34.700044 30.500301 35.467941 C 30.986801 36.2616 31.805231 36.657934 32.9546 36.657934 C 35.052198 36.657934 36.535478 35.993084 37.403449 34.662392 C 38.272411 33.357462 38.706397 31.52739 38.706397 29.173166 L 38.706397 22.119411 L 41.394533 22.119411 L 41.394533 39.000268 L 38.706397 39.000268 Z M 47.529783 24.611361 L 47.529783 22.119411 L 51.745787 22.119411 L 51.745787 15.553147 L 54.433922 15.553147 L 54.433922 22.119411 L 58.621191 22.119411 L 58.621191 24.611361 L 54.433922 24.611361 L 54.433922 39.000268 L 51.745787 39.000268 L 51.745787 24.611361 Z M 74.386368 12.714405 L 72.081685 12.714405 C 71.188943 12.714405 70.601378 12.920499 70.320971 13.332686 C 70.039574 13.738928 69.898876 14.238309 69.898876 14.831819 L 69.898876 22.119411 L 74.386368 22.119411 L 74.386368 24.611361 L 69.898876 24.611361 L 69.898876 39.000268 L 67.21074 39.000268 L 67.21074 24.611361 L 63.791368 24.611361 L 63.791368 22.119411 L 67.21074 22.119411 L 67.21074 15.589808 C 67.21074 13.878636 67.619955 12.548935 68.437394 11.599715 C 69.231053 10.681211 70.573634 10.222455 72.466129 10.222455 L 74.386368 10.222455 Z M 84.203561 16.283393 C 84.5345 16.614332 84.69997 17.010666 84.69997 17.473386 C 84.69997 17.959886 84.5345 18.369101 84.203561 18.700039 C 83.872622 19.030978 83.476288 19.196448 83.014559 19.196448 C 82.527068 19.196448 82.117853 19.030978 81.786915 18.700039 C 81.455976 18.369101 81.290506 17.959886 81.290506 17.473386 C 81.290506 17.010666 81.455976 16.614332 81.786915 16.283393 C 82.117853 15.952454 82.527068 15.786984 83.014559 15.786984 C 83.476288 15.786984 83.872622 15.952454 84.203561 16.283393 Z M 84.354168 39.000268 L 81.67495 39.000268 L 81.67495 22.119411 L 84.354168 22.119411 Z M 91.224618 24.611361 L 91.224618 22.119411 L 95.439631 22.119411 L 95.439631 15.553147 L 98.127766 15.553147 L 98.127766 22.119411 L 102.315035 22.119411 L 102.315035 24.611361 L 98.127766 24.611361 L 98.127766 39.000268 L 95.439631 39.000268 L 95.439631 24.611361 Z M 91.224618 24.611361 " stroke="#000000" stroke-width="1.055197" stroke-opacity="1" stroke-miterlimit="4"/><g fill="#000000" fill-opacity="1"><g transform="translate(912.189763, 1294.834881)"><g><path d="M 65.796875 -33.578125 C 65.796875 -40.234375 63.425781 -45.929688 58.6875 -50.671875 C 53.945312 -55.410156 48.25 -57.78125 41.59375 -57.78125 C 34.9375 -57.78125 29.238281 -55.410156 24.5 -50.671875 C 19.757812 -45.929688 17.390625 -40.234375 17.390625 -33.578125 C 17.390625 -27.023438 19.757812 -21.378906 24.5 -16.640625 C 29.238281 -11.898438 34.9375 -9.53125 41.59375 -9.53125 C 48.25 -9.53125 53.945312 -11.898438 58.6875 -16.640625 C 63.425781 -21.378906 65.796875 -27.023438 65.796875 -33.578125 Z M 76.390625 -33.578125 C 76.390625 -23.898438 73.007812 -15.734375 66.25 -9.078125 C 59.289062 -2.316406 51.070312 1.0625 41.59375 1.0625 C 32.113281 1.0625 23.945312 -2.316406 17.09375 -9.078125 C 10.238281 -15.734375 6.8125 -23.898438 6.8125 -33.578125 C 6.8125 -43.160156 10.238281 -51.378906 17.09375 -58.234375 C 23.851562 -64.992188 32.019531 -68.375 41.59375 -68.375 C 51.175781 -68.375 59.394531 -64.992188 66.25 -58.234375 C 73.007812 -51.378906 76.390625 -43.160156 76.390625 -33.578125 Z M 76.390625 -33.578125 "/></g></g></g><g fill="#000000" fill-opacity="1"><g transform="translate(1007.466627, 1294.834881)"><g><path d="M 57.328125 -11.34375 C 52.390625 -2.875 44.976562 1.359375 35.09375 1.359375 C 27.632812 1.359375 21.785156 -1.109375 17.546875 -6.046875 C 13.410156 -10.992188 11.34375 -17.296875 11.34375 -24.953125 L 11.34375 -66.5625 L 21.9375 -66.5625 L 21.9375 -24.953125 C 21.9375 -20.617188 22.941406 -16.941406 24.953125 -13.921875 C 26.867188 -10.796875 30.097656 -9.234375 34.640625 -9.234375 C 42.910156 -9.234375 48.757812 -11.851562 52.1875 -17.09375 C 55.613281 -22.238281 57.328125 -29.445312 57.328125 -38.71875 L 57.328125 -66.5625 L 67.921875 -66.5625 L 67.921875 0 L 57.328125 0 Z M 57.328125 -11.34375 "/></g></g></g><g fill="#000000" fill-opacity="1"><g transform="translate(1096.543153, 1294.834881)"><g><path d="M 3.03125 -56.71875 L 3.03125 -66.5625 L 19.671875 -66.5625 L 19.671875 -92.421875 L 30.25 -92.421875 L 30.25 -66.5625 L 46.734375 -66.5625 L 46.734375 -56.71875 L 30.25 -56.71875 L 30.25 0 L 19.671875 0 L 19.671875 -56.71875 Z M 3.03125 -56.71875 "/></g></g></g><g fill="#000000" fill-opacity="1"><g transform="translate(1158.398741, 1294.834881)"><g><path d="M 47.046875 -103.609375 L 37.96875 -103.609375 C 34.4375 -103.609375 32.117188 -102.804688 31.015625 -101.203125 C 29.898438 -99.585938 29.34375 -97.617188 29.34375 -95.296875 L 29.34375 -66.5625 L 47.046875 -66.5625 L 47.046875 -56.71875 L 29.34375 -56.71875 L 29.34375 0 L 18.75 0 L 18.75 -56.71875 L 5.296875 -56.71875 L 5.296875 -66.5625 L 18.75 -66.5625 L 18.75 -92.265625 C 18.75 -99.023438 20.363281 -104.269531 23.59375 -108 C 26.71875 -111.632812 32.015625 -113.453125 39.484375 -113.453125 L 47.046875 -113.453125 Z M 47.046875 -103.609375 "/></g></g></g><g fill="#000000" fill-opacity="1"><g transform="translate(1222.069054, 1294.834881)"><g><path d="M 22.078125 -89.546875 C 23.390625 -88.234375 24.046875 -86.671875 24.046875 -84.859375 C 24.046875 -82.941406 23.390625 -81.328125 22.078125 -80.015625 C 20.773438 -78.703125 19.210938 -78.046875 17.390625 -78.046875 C 15.472656 -78.046875 13.863281 -78.703125 12.5625 -80.015625 C 11.25 -81.328125 10.59375 -82.941406 10.59375 -84.859375 C 10.59375 -86.671875 11.25 -88.234375 12.5625 -89.546875 C 13.863281 -90.859375 15.472656 -91.515625 17.390625 -91.515625 C 19.210938 -91.515625 20.773438 -90.859375 22.078125 -89.546875 Z M 22.6875 0 L 12.09375 0 L 12.09375 -66.5625 L 22.6875 -66.5625 Z M 22.6875 0 "/></g></g></g><g fill="#000000" fill-opacity="1"><g transform="translate(1268.801912, 1294.834881)"><g><path d="M 3.03125 -56.71875 L 3.03125 -66.5625 L 19.671875 -66.5625 L 19.671875 -92.421875 L 30.25 -92.421875 L 30.25 -66.5625 L 46.734375 -66.5625 L 46.734375 -56.71875 L 30.25 -56.71875 L 30.25 0 L 19.671875 0 L 19.671875 -56.71875 Z M 3.03125 -56.71875 "/></g></g></g></svg>